<?xml version="1.0" encoding="UTF-8" standalone="no"?>
<!-- Created with Inkscape (http://www.inkscape.org/) -->

<svg
   width="78.383003mm"
   height="78.383385mm"
   viewBox="0 0 78.383004 78.383385"
   version="1.1"
   id="svg1"
   xml:space="preserve"
   sodipodi:docname="favicon.svg"
   inkscape:version="1.4 (e7c3feb100, 2024-10-09)"
   xmlns:inkscape="http://www.inkscape.org/namespaces/inkscape"
   xmlns:sodipodi="http://sodipodi.sourceforge.net/DTD/sodipodi-0.dtd"
   xmlns="http://www.w3.org/2000/svg"
   xmlns:svg="http://www.w3.org/2000/svg"><sodipodi:namedview
     id="namedview1"
     pagecolor="#ffffff"
     bordercolor="#000000"
     borderopacity="0.25"
     inkscape:showpageshadow="2"
     inkscape:pageopacity="0.0"
     inkscape:pagecheckerboard="0"
     inkscape:deskcolor="#d1d1d1"
     inkscape:document-units="mm"
     inkscape:zoom="0.94757583"
     inkscape:cx="171.49023"
     inkscape:cy="65.43012"
     inkscape:window-width="1920"
     inkscape:window-height="1002"
     inkscape:window-x="0"
     inkscape:window-y="0"
     inkscape:window-maximized="1"
     inkscape:current-layer="layer2"><inkscape:page
       x="0"
       y="0"
       width="78.383003"
       height="78.383385"
       id="page2"
       margin="0"
       bleed="0" /></sodipodi:namedview><defs
     id="defs1"><rect
       x="330.6944"
       y="606.98962"
       width="452.76761"
       height="246.39403"
       id="rect3" /></defs><g
     id="layer2"
     transform="translate(-0.57003148,-88.742689)"><rect
       style="fill:#fbf1c7;fill-opacity:1;stroke:none;stroke-width:7.04104;stroke-linecap:butt;stroke-dasharray:none;stroke-opacity:1;paint-order:fill markers stroke"
       id="rect2"
       width="78.382744"
       height="78.380867"
       x="0.57003146"
       y="88.745209" /><path
       style="fill:#458588;fill-opacity:1;stroke:none;stroke-width:0.308839px;stroke-linecap:butt;stroke-linejoin:miter;stroke-opacity:1"
       d="m 35.893493,135.31863 v 4.95249 c 0,0 -0.434958,12.03582 13.104174,12.03582 13.53915,0 12.75687,-12.03582 12.75687,-12.03582 v -36.70413 h -12.75687 c 0,0 -5.13805,-0.20544 -8.82248,3.02831 -2.806711,-2.95724 -9.391129,-3.02831 -9.391129,-3.02831 H 17.757991 v 48.73995 h 8.774735 v -40.10481 h 4.251332 c 0,0 5.109435,-0.0926 5.109435,3.48954 v 10.82108 h 8.284524 v -10.82108 c 0,0 -0.0638,-3.48954 4.81965,-3.48954 h 4.6512 v 28.06899 c 0,0 0.0882,4.14885 -4.6512,4.14885 -4.83717,0 -4.81965,-4.14885 -4.81965,-4.14885 v -4.88263 z"
       id="path1" /><path
       id="rect1"
       style="fill:none;stroke:#458588;stroke-width:7.004;stroke-linecap:butt;stroke-dasharray:none;stroke-opacity:1;paint-order:fill markers stroke"
       d="M 4.0779317,103.5248 V 92.244488 H 75.462257 V 103.5248" /><path
       id="rect1-6"
       style="fill:none;stroke:#458588;stroke-width:7.004;stroke-linecap:butt;stroke-dasharray:none;stroke-opacity:1;paint-order:fill markers stroke"
       d="m 75.451277,152.28432 v 11.32563 H 4.0866107 v -11.32563" /></g></svg>
