<?xml version="1.0" standalone="no"?>
<!DOCTYPE svg PUBLIC "-//W3C//DTD SVG 20010904//EN"
 "http://www.w3.org/TR/2001/REC-SVG-20010904/DTD/svg10.dtd">
<svg version="1.0" xmlns="http://www.w3.org/2000/svg"
 width="296.000000pt" height="296.000000pt" viewBox="0 0 296.000000 296.000000"
 preserveAspectRatio="xMidYMid meet">
<metadata>
Created by potrace 1.14, written by Peter Selinger 2001-2017
</metadata>
<g transform="translate(0.000000,296.000000) scale(0.100000,-0.100000)"
fill="#000000" stroke="none">
<path d="M0 2680 l0 -280 135 0 135 0 0 145 0 145 1210 0 1210 0 0 -145 0
-145 135 0 135 0 0 280 0 280 -1480 0 -1480 0 0 -280z"/>
<path d="M640 1481 l0 -921 170 0 170 0 0 756 0 756 123 -4 c128 -4 163 -14
202 -58 19 -20 20 -39 23 -251 l3 -229 160 0 159 0 0 218 c0 200 2 220 20 250
33 54 86 72 218 72 l112 0 -2 -554 c-3 -542 -3 -555 -24 -582 -40 -55 -70 -69
-142 -69 -75 0 -120 20 -156 68 -18 24 -21 45 -24 148 l-4 119 -143 0 c-79 0
-150 3 -159 6 -14 5 -16 -9 -16 -123 0 -146 14 -215 62 -305 77 -146 223 -218
438 -218 224 0 363 77 441 243 l34 72 3 763 3 763 -308 -3 c-297 -3 -310 -4
-368 -27 -33 -13 -78 -36 -100 -51 l-40 -27 -39 29 c-22 15 -69 38 -105 50
-61 20 -89 22 -388 26 l-323 3 0 -920z"/>
<path d="M0 280 l0 -280 1480 0 1480 0 0 280 0 280 -135 0 -135 0 0 -145 0
-145 -1210 0 -1210 0 0 145 0 145 -135 0 -135 0 0 -280z"/>
</g>
</svg>
